<?xml version="1.0" encoding="utf-8"?>
<!-- Generator: Adobe Illustrator 26.0.3, SVG Export Plug-In . SVG Version: 6.00 Build 0)  -->
<svg version="1.1" id="Layer_1" xmlns="http://www.w3.org/2000/svg" xmlns:xlink="http://www.w3.org/1999/xlink" x="0px" y="0px"
	 viewBox="0 0 800 350" style="enable-background:new 0 0 800 350;" xml:space="preserve">
<style type="text/css">
	.st0{fill:#FFFFFF;}
	.st1{clip-path:url(#SVGID_00000075135080398214758170000008002312695012765841_);fill:#FFFFFF;}
	.st2{clip-path:url(#SVGID_00000057107808601772294480000004901801981552135862_);fill:#FFFFFF;}
	.st3{clip-path:url(#SVGID_00000044859162431293638270000017660229991701345930_);fill:#FFFFFF;}
	.st4{clip-path:url(#SVGID_00000044859162431293638270000017660229991701345930_);fill:#FFD800;}
	.st5{clip-path:url(#SVGID_00000024683555110485110050000013177704256793325976_);fill:#FFFFFF;}
</style>
<rect x="289" y="189.76" class="st0" width="2.2" height="80.48"/>
<g>
	<defs>
		<rect id="SVGID_1_" width="800" height="350"/>
	</defs>
	<clipPath id="SVGID_00000150095814888512532790000007572676679882246272_">
		<use xlink:href="#SVGID_1_"  style="overflow:visible;"/>
	</clipPath>
	<path style="clip-path:url(#SVGID_00000150095814888512532790000007572676679882246272_);fill:#FFFFFF;" d="M313.57,270.24v-80.48
		h3.53c13.45,20.46,46.94,71.56,51.02,78.08l0.22,0.34c-0.33-2.17-0.33-25.03-0.33-38.07v-40.35h2.2v80.48h-3.19
		c-12.89-19.77-46.28-70.87-51.35-78.53l-0.22-0.34c0.55,10.74,0.33,22.87,0.33,37.61v41.27H313.57z"/>
</g>
<polygon class="st0" points="381.99,189.76 381.99,191.82 409.43,191.82 409.43,270.24 411.64,270.24 411.64,191.82 439.18,191.82
	439.18,189.76 "/>
<polygon class="st0" points="451.52,189.76 451.52,270.24 499.23,270.24 499.67,268.18 453.72,268.18 453.72,228.63 495.92,228.63
	495.92,226.57 453.72,226.57 453.72,191.82 498.13,191.82 498.13,189.76 "/>
<g>
	<defs>
		<rect id="SVGID_00000029763535305692117220000001387566584902157705_" width="800" height="350"/>
	</defs>
	<clipPath id="SVGID_00000120535455007000157480000013669245518363771820_">
		<use xlink:href="#SVGID_00000029763535305692117220000001387566584902157705_"  style="overflow:visible;"/>
	</clipPath>
	<path style="clip-path:url(#SVGID_00000120535455007000157480000013669245518363771820_);fill:#FFFFFF;" d="M516.85,230.8v39.44
		h-2.32v-80.48h25.57c13.67,0,23.47,6.52,23.47,20.58c0,9.49-4.4,17.15-16.2,19.21c8.38,1.48,14.98,5.6,14.98,22.4v1.48
		c0,10.63,0.22,14.63,0.99,16.8h-2.43c-0.88-3.66-0.77-8.69-0.77-16.8v-1.03c0-14.17-3.53-21.61-20.83-21.61H516.85z M516.85,228.63
		h21.6c12.34,0,22.81-4,22.81-18.18c0-11.66-7.6-18.63-21.16-18.63h-23.25V228.63z"/>
</g>
<rect x="583.73" y="189.76" class="st0" width="2.2" height="80.48"/>
<polygon class="st0" points="608.29,189.76 608.29,270.24 656.01,270.24 656.45,268.18 610.5,268.18 610.5,228.63 652.7,228.63
	652.7,226.57 610.5,226.57 610.5,191.82 654.91,191.82 654.91,189.76 "/>
<g>
	<defs>
		<rect id="SVGID_00000174580990662112505500000009275592904792082056_" width="800" height="350"/>
	</defs>
	<clipPath id="SVGID_00000148633097608031145170000016634241368514109879_">
		<use xlink:href="#SVGID_00000174580990662112505500000009275592904792082056_"  style="overflow:visible;"/>
	</clipPath>
	<path style="clip-path:url(#SVGID_00000148633097608031145170000016634241368514109879_);fill:#FFFFFF;" d="M673.64,230.8v39.44
		h-2.32v-80.48h25.57c13.67,0,23.47,6.52,23.47,20.58c0,9.49-4.4,17.15-16.2,19.21c8.38,1.48,14.98,5.6,14.98,22.4v1.48
		c0,10.63,0.22,14.63,0.99,16.8h-2.43c-0.88-3.66-0.77-8.69-0.77-16.8v-1.03c0-14.17-3.53-21.61-20.83-21.61H673.64z M673.64,228.63
		h21.6c12.34,0,22.81-4,22.81-18.18c0-11.66-7.6-18.63-21.16-18.63h-23.25V228.63z"/>
	<path style="clip-path:url(#SVGID_00000148633097608031145170000016634241368514109879_);fill:#FFD800;" d="M260.85,107.11V79.76
		c-44.92,4.72-87.11,18.73-124.59,40.1l19.99,19.99C188.07,122.77,223.4,111.41,260.85,107.11"/>
	<path style="clip-path:url(#SVGID_00000148633097608031145170000016634241368514109879_);fill:#FFFFFF;" d="M190.55,174.13
		c13.74-6.39,28.16-11.55,43.12-15.36v58.46l27.17,27.16v-90.92v-12.82v-14.59c-32.26,3.97-62.8,13.54-90.63,27.73L190.55,174.13z"
		/>
</g>
<polygon class="st0" points="79.64,152.51 79.64,270.24 106.82,270.24 106.82,179.67 "/>
<polygon class="st0" points="260.83,270.24 79.65,89.05 79.65,126.95 222.94,270.24 "/>
<g>
	<defs>
		<rect id="SVGID_00000106826657954083321880000005083659660614026904_" width="800" height="350"/>
	</defs>
	<clipPath id="SVGID_00000086688394190709990100000003835657039758897540_">
		<use xlink:href="#SVGID_00000106826657954083321880000005083659660614026904_"  style="overflow:visible;"/>
	</clipPath>
	<path style="clip-path:url(#SVGID_00000086688394190709990100000003835657039758897540_);fill:#FFFFFF;" d="M417.41,99.19
		c-15.87,0-28.78,12.91-28.78,28.77s12.91,28.77,28.78,28.77c15.86,0,28.77-12.9,28.77-28.77S433.27,99.19,417.41,99.19
		 M417.41,175.92c-26.45,0-47.95-21.51-47.95-47.96c0-26.44,21.5-47.96,47.95-47.96c26.45,0,47.95,21.51,47.95,47.96
		C465.36,154.4,443.85,175.92,417.41,175.92"/>
	<path style="clip-path:url(#SVGID_00000086688394190709990100000003835657039758897540_);fill:#FFFFFF;" d="M700.31,146.58
		c-5.28,6.44-13.27,10.57-22.23,10.57c-15.86,0-28.78-12.9-28.78-28.77c0-13.42,9.25-24.69,21.69-27.86V81.03
		c-23.09,3.44-40.87,23.32-40.87,47.35c0,26.44,21.5,47.96,47.95,47.96c17.05,0,32-8.97,40.5-22.41L700.31,146.58z"/>
	<path style="clip-path:url(#SVGID_00000086688394190709990100000003835657039758897540_);fill:#FFFFFF;" d="M684.58,80.87v19.5
		c7.53,1.71,13.96,6.34,17.98,12.69l17.79-7.59C713.18,92.32,700.04,82.91,684.58,80.87"/>
</g>
<rect x="289" y="79.83" class="st0" width="18.81" height="96.26"/>
<polygon class="st0" points="332.64,126.46 373.02,79.83 348.13,79.83 317,115.8 317,137.07 351.4,176.11 376.48,176.11 "/>
<polygon class="st0" points="497.47,176.08 514.81,176.08 553.83,79.78 533.54,79.78 506.17,147.32 478.96,79.78 458.68,79.78
	496.01,172.4 "/>
<polygon class="st0" points="551.26,176.08 584.11,102.82 616.65,176.08 637.23,176.08 594.46,79.78 573.83,79.78 530.65,176.08 "/>
</svg>
